# Blender v2.93.5 OBJ File: 'cylinder.blend'
# www.blender.org
mtllib model.mtl
o ステージ.001_立方体.001
v -35.724434 -8.618492 66.987061
v -35.724449 84.765823 66.987061
v -35.369919 -8.618488 69.941757
v -35.369926 84.765823 69.941757
v -34.319984 -8.618488 72.782898
v -34.320000 84.765823 72.782898
v -32.614998 -8.618488 75.401321
v -32.615013 84.765823 75.401321
v -30.320465 -8.618488 77.696381
v -30.320477 84.765823 77.696381
v -27.524570 -8.618488 79.579880
v -27.524582 84.765823 79.579880
v -24.334759 -8.618488 80.979462
v -24.334770 84.765831 80.979462
v -20.873610 -8.618488 81.841309
v -20.873621 84.765831 81.841309
v -17.274136 -8.618488 82.132324
v -17.274147 84.765831 82.132324
v -13.674662 -8.618477 81.841309
v -13.674671 84.765839 81.841309
v -10.213512 -8.618481 80.979462
v -10.213524 84.765831 80.979462
v -7.023697 -8.618481 79.579880
v -7.023708 84.765831 79.579880
v -4.227801 -8.618481 77.696381
v -4.227813 84.765831 77.696381
v -1.933268 -8.618477 75.401321
v -1.933279 84.765839 75.401321
v -0.228277 -8.618477 72.782898
v -0.228289 84.765839 72.782898
v 0.821650 -8.618477 69.941742
v 0.821638 84.765839 69.941742
v -1.933275 -8.618477 58.572788
v -1.933287 84.765839 58.572788
v -4.227809 -8.618481 56.277729
v -4.227820 84.765831 56.277729
v -7.023706 -8.618481 54.394218
v -7.023718 84.765831 54.394218
v -10.213524 -8.618481 52.994644
v -10.213535 84.765831 52.994644
v -13.674675 -8.618477 52.132797
v -13.674686 84.765839 52.132797
v -17.274151 -8.618488 51.841789
v -17.274162 84.765831 51.841789
v -20.873627 -8.618488 52.132805
v -20.873638 84.765831 52.132805
v -24.334778 -8.618488 52.994659
v -24.334789 84.765831 52.994659
v -27.524590 -8.618488 54.394234
v -27.524601 84.765823 54.394234
v -30.320484 -8.618488 56.277752
v -30.320492 84.765823 56.277752
v -32.615013 -8.618488 58.572811
v -32.615021 84.765823 58.572811
v -34.320000 -8.618488 61.191235
v -34.320015 84.765823 61.191235
v -35.369919 -8.618488 64.032379
v -35.369934 84.765823 64.032379
v -36.724403 -8.618492 66.987061
v -36.724449 84.765823 66.987061
v -36.342026 -8.618488 70.176231
v -36.342033 84.765823 70.176231
v -35.213539 -8.618488 73.231827
v -35.213554 84.765823 73.231827
v -33.391785 -8.618488 76.031075
v -33.391800 84.765823 76.031075
v -30.956348 -8.618488 78.468132
v -30.956360 84.765823 78.468132
v -28.006733 -8.618488 80.455948
v -28.006744 84.765823 80.455948
v -24.657614 -8.618488 81.925903
v -24.657625 84.765831 81.925903
v -21.035236 -8.618488 82.828156
v -21.035248 84.765831 82.828156
v -17.274136 -8.618488 83.132294
v -17.274147 84.765831 83.132324
v -13.513035 -8.618477 82.828156
v -13.513046 84.765839 82.828156
v -9.890657 -8.618481 81.925903
v -9.890669 84.765831 81.925903
v -6.541535 -8.618481 80.455948
v -6.541547 84.765831 80.455948
v -3.591918 -8.618481 78.468132
v -3.591929 84.765831 78.468132
v -1.156481 -8.618477 76.031075
v -1.156492 84.765839 76.031075
v 0.665274 -8.618477 73.231827
v 0.665262 84.765839 73.231827
v 1.759636 -8.618477 70.288368
v 1.759624 84.765839 70.288368
v -1.226101 -8.618477 57.865765
v -1.226112 84.765839 57.865765
v -3.591926 -8.618481 55.505978
v -3.591937 84.765831 55.505978
v -6.541545 -8.618481 53.518150
v -6.541556 84.765831 53.518150
v -9.890669 -8.618481 52.048203
v -9.890680 84.765831 52.048203
v -13.513050 -8.618477 51.145950
v -13.513060 84.765839 51.145950
v -17.274151 -8.618488 50.841789
v -17.274162 84.765831 50.841789
v -21.035254 -8.618488 51.145958
v -21.035265 84.765831 51.145958
v -24.657633 -8.618488 52.048218
v -24.657644 84.765831 52.048218
v -28.006752 -8.618488 53.518166
v -28.006763 84.765823 53.518166
v -30.956367 -8.618488 55.506001
v -30.956375 84.765823 55.506001
v -33.391800 -8.618488 57.943062
v -33.391808 84.765823 57.943062
v -35.213547 -8.618488 60.742306
v -35.213562 84.765823 60.742306
v -36.342026 -8.618488 63.797905
v -36.342041 84.765823 63.797905
v -2.334343 -0.560828 -4.598859
v -2.334343 0.560828 -4.598859
v 2.334343 -0.560828 -4.598859
v 2.334343 0.560828 -4.598859
v -3.734948 -0.560828 4.598859
v -3.734948 0.560828 4.598859
v 3.734948 -0.560828 4.598859
v 3.734948 0.560828 4.598859
v 3.734948 -0.560828 -4.598859
v -3.734948 -0.560828 -4.598859
v -3.734948 0.560828 -4.598859
v 3.734948 0.560828 -4.598859
v 2.334343 -0.560828 -4.598859
v -2.334343 -0.560828 -4.598859
v -2.334343 0.560828 -4.598859
v 2.334343 0.560828 -4.598859
v -0.466869 0.560828 4.598859
v -0.466868 -0.560828 4.598859
v 0.466868 0.560828 4.598859
v 0.466869 -0.560828 4.598859
v 0.466868 0.560828 9.879676
v -0.466869 0.560828 9.879676
v -0.466868 -0.560828 9.879676
v 0.466869 -0.560828 9.879676
v 0.466868 0.560828 10.531182
v -0.466869 0.560828 10.531182
v -0.466868 -0.560828 10.531182
v 0.466869 -0.560828 10.531182
v 0.466868 0.560828 70.127396
v -0.466869 0.560828 70.127396
v -0.466868 -0.560828 70.127396
v 0.466869 -0.560828 70.127396
v 0.466869 -0.560828 7.239268
v -0.466869 0.560828 7.239268
v -0.466869 0.560828 5.919063
v 1.176167 -9.221711 27.721249
v 1.176163 21.559923 27.721249
vt 1.000000 1.000000
vt 0.968750 0.500000
vt 1.000000 0.500000
vt 0.968750 1.000000
vt 0.937500 0.500000
vt 0.937500 1.000000
vt 0.906250 0.500000
vt 0.906250 1.000000
vt 0.875000 0.500000
vt 0.875000 1.000000
vt 0.843750 0.500000
vt 0.843750 1.000000
vt 0.812500 0.500000
vt 0.812500 1.000000
vt 0.781250 0.500000
vt 0.781250 1.000000
vt 0.750000 0.500000
vt 0.750000 1.000000
vt 0.718750 0.500000
vt 0.718750 1.000000
vt 0.687500 0.500000
vt 0.687500 1.000000
vt 0.656250 0.500000
vt 0.656250 1.000000
vt 0.625000 0.500000
vt 0.625000 1.000000
vt 0.593750 0.500000
vt 0.593750 1.000000
vt 0.562500 0.500000
vt 0.562500 1.000000
vt 0.531250 0.500000
vt 0.406250 1.000000
vt 0.375000 0.500000
vt 0.406250 0.500000
vt 0.375000 1.000000
vt 0.343750 0.500000
vt 0.343750 1.000000
vt 0.312500 0.500000
vt 0.312500 1.000000
vt 0.281250 0.500000
vt 0.250000 1.000000
vt 0.250000 0.500000
vt 0.218750 0.500000
vt 0.218750 1.000000
vt 0.187500 0.500000
vt 0.187500 1.000000
vt 0.156250 0.500000
vt 0.125000 1.000000
vt 0.125000 0.500000
vt 0.093750 1.000000
vt 0.093750 0.500000
vt 0.062500 0.500000
vt 0.062500 1.000000
vt 0.031250 0.500000
vt 0.031250 1.000000
vt 0.000000 0.500000
vt 0.968750 0.500000
vt 1.000000 1.000000
vt 1.000000 0.500000
vt 0.937500 1.000000
vt 0.968750 1.000000
vt 0.906250 0.500000
vt 0.937500 0.500000
vt 0.875000 0.500000
vt 0.906250 1.000000
vt 0.843750 0.500000
vt 0.875000 1.000000
vt 0.812500 0.500000
vt 0.843750 1.000000
vt 0.781250 0.500000
vt 0.812500 1.000000
vt 0.750000 0.500000
vt 0.781250 1.000000
vt 0.718750 0.500000
vt 0.750000 1.000000
vt 0.687500 1.000000
vt 0.718750 1.000000
vt 0.656250 0.500000
vt 0.687500 0.500000
vt 0.625000 0.500000
vt 0.656250 1.000000
vt 0.593750 1.000000
vt 0.625000 1.000000
vt 0.562500 0.500000
vt 0.593750 0.500000
vt 0.531250 0.500000
vt 0.562500 1.000000
vt 0.375000 0.500000
vt 0.406250 1.000000
vt 0.406250 0.500000
vt 0.343750 0.500000
vt 0.375000 1.000000
vt 0.312500 0.500000
vt 0.343750 1.000000
vt 0.281250 0.500000
vt 0.312500 1.000000
vt 0.250000 1.000000
vt 0.281250 1.000000
vt 0.218750 0.500000
vt 0.250000 0.500000
vt 0.187500 0.500000
vt 0.218750 1.000000
vt 0.156250 1.000000
vt 0.187500 1.000000
vt 0.125000 0.500000
vt 0.156250 0.500000
vt 0.093750 0.500000
vt 0.125000 1.000000
vt 0.062500 1.000000
vt 0.093750 1.000000
vt 0.031250 0.500000
vt 0.062500 0.500000
vt 0.000000 0.500000
vt 0.031250 1.000000
vt 1.000000 0.000000
vt 0.968750 0.000000
vt 0.968750 0.000000
vt 0.937500 0.000000
vt 0.937500 0.000000
vt 0.906250 0.000000
vt 0.906250 0.000000
vt 0.875000 0.000000
vt 0.875000 0.000000
vt 0.843750 0.000000
vt 0.843750 0.000000
vt 0.812500 0.000000
vt 0.812500 0.000000
vt 0.781250 0.000000
vt 0.781250 0.000000
vt 0.750000 0.000000
vt 0.750000 0.000000
vt 0.718750 0.000000
vt 0.718750 0.000000
vt 0.687500 0.000000
vt 0.687500 0.000000
vt 0.656250 0.000000
vt 0.656250 0.000000
vt 0.625000 0.000000
vt 0.625000 0.000000
vt 0.593750 0.000000
vt 0.593750 0.000000
vt 0.562500 0.000000
vt 0.562500 0.000000
vt 0.531250 0.000000
vt 0.531250 0.000000
vt 0.531250 1.000000
vt 0.375000 0.000000
vt 0.406250 0.000000
vt 0.375000 0.000000
vt 0.343750 0.000000
vt 0.343750 0.000000
vt 0.312500 0.000000
vt 0.312500 0.000000
vt 0.281250 0.000000
vt 0.281250 0.000000
vt 0.250000 0.000000
vt 0.250000 0.000000
vt 0.218750 0.000000
vt 0.218750 0.000000
vt 0.187500 0.000000
vt 0.187500 0.000000
vt 0.156250 0.000000
vt 0.156250 0.000000
vt 0.125000 0.000000
vt 0.125000 0.000000
vt 0.093750 0.000000
vt 0.093750 0.000000
vt 0.062500 0.000000
vt 0.062500 0.000000
vt 0.031250 0.000000
vt 0.031250 0.000000
vt 0.000000 0.000000
vt 0.000000 0.000000
vt 0.625000 0.000000
vt 0.375000 0.250000
vt 0.375000 0.000000
vt 0.625000 0.250000
vt 0.375000 0.500000
vt 0.375000 0.250000
vt 0.625000 0.599862
vt 0.375000 0.599364
vt 0.625000 0.750000
vt 0.375000 1.000000
vt 0.375000 0.750000
vt 0.375000 0.647288
vt 0.125000 0.750000
vt 0.875000 0.750000
vt 0.625000 0.647697
vt 0.375000 0.000000
vt 0.375000 0.000000
vt 0.000000 0.000000
vt 0.000000 0.000000
vt 0.000000 0.000000
vt 0.625000 0.250000
vt 0.625000 0.000000
vt 0.000000 0.000000
vt 0.000000 0.000000
vt 0.000000 0.000000
vt 0.375000 0.250000
vt 0.625000 0.000000
vt 0.625000 0.250000
vt 0.375000 0.599364
vt 0.375000 0.599364
vt 0.625000 0.599862
vt 0.375000 0.599364
vt 0.375000 0.599364
vt 0.375000 0.647288
vt 0.625000 0.647697
vt 0.625000 0.647697
vt 0.625000 0.599862
vt 0.625000 0.599862
vt 0.375000 0.647288
vt 0.281250 1.000000
vt 0.156250 1.000000
vt 0.000000 1.000000
vt 0.531250 1.000000
vt 0.000000 1.000000
vt 1.000000 0.000000
vt 0.406250 0.000000
vt 0.625000 0.500000
vt 0.625000 1.000000
vt 0.125000 0.500000
vt 0.875000 0.500000
vt 0.000000 0.000000
vt 0.000000 0.000000
vt 0.375000 0.647288
vt 0.625000 0.647697
vt 0.625000 0.647697
vt 0.625000 0.647697
vn 0.9929 0.0000 -0.1191
vn 0.9380 0.0000 -0.3466
vn 0.8380 0.0000 -0.5457
vn 0.7072 0.0000 -0.7070
vn 0.5587 0.0000 -0.8294
vn 0.4018 0.0000 -0.9157
vn 0.2416 0.0000 -0.9704
vn 0.0806 0.0000 -0.9967
vn -0.0806 -0.0000 -0.9967
vn -0.2416 -0.0000 -0.9704
vn -0.4018 -0.0000 -0.9157
vn -0.5587 -0.0000 -0.8294
vn -0.7072 -0.0000 -0.7070
vn -0.8380 -0.0000 -0.5457
vn -0.9380 -0.0000 -0.3466
vn -0.7072 -0.0000 0.7070
vn -0.5587 -0.0000 0.8294
vn -0.4018 -0.0000 0.9157
vn -0.2416 -0.0000 0.9704
vn -0.0806 -0.0000 0.9967
vn 0.0806 0.0000 0.9967
vn 0.2416 0.0000 0.9704
vn 0.4018 0.0000 0.9157
vn 0.5587 0.0000 0.8294
vn 0.7072 0.0000 0.7070
vn 0.8380 0.0000 0.5457
vn 0.9380 0.0000 0.3466
vn 0.9929 0.0000 0.1191
vn -0.9929 -0.0000 0.1190
vn -0.9381 -0.0000 0.3464
vn -0.8381 -0.0000 0.5455
vn -0.7073 -0.0000 0.7069
vn -0.5589 -0.0000 0.8293
vn -0.4019 -0.0000 0.9157
vn -0.2417 -0.0000 0.9704
vn 0.2417 0.0000 0.9704
vn 0.4019 0.0000 0.9157
vn 0.5589 0.0000 0.8293
vn 0.7073 0.0000 0.7069
vn 0.8381 0.0000 0.5455
vn 0.9373 0.0000 0.3485
vn 0.7062 0.0000 -0.7080
vn 0.5589 0.0000 -0.8293
vn 0.4019 0.0000 -0.9157
vn 0.2417 0.0000 -0.9704
vn -0.2417 -0.0000 -0.9704
vn -0.4019 -0.0000 -0.9157
vn -0.5589 -0.0000 -0.8293
vn -0.7073 -0.0000 -0.7069
vn -0.8381 -0.0000 -0.5455
vn -0.9381 -0.0000 -0.3464
vn -0.9929 -0.0000 -0.1190
vn 0.0000 -1.0000 0.0000
vn 0.0000 1.0000 0.0000
vn 0.3466 0.0000 -0.9380
vn 0.7070 0.0000 0.7072
vn 0.0000 0.0000 -1.0000
vn 1.0000 0.0000 0.0000
vn 0.0000 0.0000 1.0000
vn -1.0000 0.0000 0.0000
vn -0.9929 -0.0000 0.1191
vn -0.9929 -0.0000 -0.1191
usemtl Stage
s off
f 2/1/1 3/2/1 1/3/1
f 4/4/2 5/5/2 3/2/2
f 6/6/3 7/7/3 5/5/3
f 8/8/4 9/9/4 7/7/4
f 10/10/5 11/11/5 9/9/5
f 12/12/6 13/13/6 11/11/6
f 14/14/7 15/15/7 13/13/7
f 16/16/8 17/17/8 15/15/8
f 18/18/9 19/19/9 17/17/9
f 20/20/10 21/21/10 19/19/10
f 22/22/11 23/23/11 21/21/11
f 24/24/12 25/25/12 23/23/12
f 26/26/13 27/27/13 25/25/13
f 28/28/14 29/29/14 27/27/14
f 30/30/15 31/31/15 29/29/15
f 34/32/16 35/33/16 33/34/16
f 36/35/17 37/36/17 35/33/17
f 38/37/18 39/38/18 37/36/18
f 40/39/19 41/40/19 39/38/19
f 41/40/20 44/41/20 43/42/20
f 44/41/21 45/43/21 43/42/21
f 46/44/22 47/45/22 45/43/22
f 48/46/23 49/47/23 47/45/23
f 49/47/24 52/48/24 51/49/24
f 51/49/25 54/50/25 53/51/25
f 54/50/26 55/52/26 53/51/26
f 56/53/27 57/54/27 55/52/27
f 58/55/28 1/56/28 57/54/28
f 61/57/29 60/58/29 59/59/29
f 61/57/30 64/60/30 62/61/30
f 65/62/31 64/60/31 63/63/31
f 67/64/32 66/65/32 65/62/32
f 69/66/33 68/67/33 67/64/33
f 71/68/34 70/69/34 69/66/34
f 73/70/35 72/71/35 71/68/35
f 75/72/20 74/73/20 73/70/20
f 77/74/21 76/75/21 75/72/21
f 77/74/36 80/76/36 78/77/36
f 81/78/37 80/76/37 79/79/37
f 83/80/38 82/81/38 81/78/38
f 83/80/39 86/82/39 84/83/39
f 87/84/40 86/82/40 85/85/40
f 89/86/41 88/87/41 87/84/41
f 93/88/42 92/89/42 91/90/42
f 95/91/43 94/92/43 93/88/43
f 97/93/44 96/94/44 95/91/44
f 99/95/45 98/96/45 97/93/45
f 99/95/8 102/97/8 100/98/8
f 103/99/9 102/97/9 101/100/9
f 105/101/46 104/102/46 103/99/46
f 105/101/47 108/103/47 106/104/47
f 109/105/48 108/103/48 107/106/48
f 111/107/49 110/108/49 109/105/49
f 111/107/50 114/109/50 112/110/50
f 115/111/51 114/109/51 113/112/51
f 59/113/52 116/114/52 115/111/52
f 1/3/53 61/57/53 59/59/53
f 2/115/54 62/116/54 4/117/54
f 3/2/53 63/63/53 61/57/53
f 4/117/54 64/118/54 6/119/54
f 5/5/53 65/62/53 63/63/53
f 6/119/54 66/120/54 8/121/54
f 7/7/53 67/64/53 65/62/53
f 8/121/54 68/122/54 10/123/54
f 9/9/53 69/66/53 67/64/53
f 10/123/54 70/124/54 12/125/54
f 11/11/53 71/68/53 69/66/53
f 12/125/54 72/126/54 14/127/54
f 13/13/53 73/70/53 71/68/53
f 14/127/54 74/128/54 16/129/54
f 15/15/53 75/72/53 73/70/53
f 16/129/54 76/130/54 18/131/54
f 19/19/53 75/72/53 17/17/53
f 20/132/54 76/130/54 78/133/54
f 21/21/53 77/74/53 19/19/53
f 22/134/54 78/133/54 80/135/54
f 23/23/53 79/79/53 21/21/53
f 24/136/54 80/135/54 82/137/54
f 25/25/53 81/78/53 23/23/53
f 26/138/54 82/137/54 84/139/54
f 27/27/53 83/80/53 25/25/53
f 28/140/54 84/139/54 86/141/54
f 29/29/53 85/85/53 27/27/53
f 30/142/54 86/141/54 88/143/54
f 29/29/53 89/86/53 87/84/53
f 30/142/54 90/144/54 32/145/54
f 32/146/55 89/86/55 31/31/55
f 33/34/56 92/89/56 34/32/56
f 35/33/53 91/90/53 33/34/53
f 36/147/54 92/148/54 94/149/54
f 35/33/53 95/91/53 93/88/53
f 36/147/54 96/150/54 38/151/54
f 37/36/53 97/93/53 95/91/53
f 38/151/54 98/152/54 40/153/54
f 39/38/53 99/95/53 97/93/53
f 40/153/54 100/154/54 42/155/54
f 41/40/53 101/100/53 99/95/53
f 42/155/54 102/156/54 44/157/54
f 45/43/53 101/100/53 43/42/53
f 46/158/54 102/156/54 104/159/54
f 47/45/53 103/99/53 45/43/53
f 48/160/54 104/159/54 106/161/54
f 49/47/53 105/101/53 47/45/53
f 50/162/54 106/161/54 108/163/54
f 51/49/53 107/106/53 49/47/53
f 52/164/54 108/163/54 110/165/54
f 53/51/53 109/105/53 51/49/53
f 54/166/54 110/165/54 112/167/54
f 55/52/53 111/107/53 53/51/53
f 56/168/54 112/167/54 114/169/54
f 57/54/53 113/112/53 55/52/53
f 58/170/54 114/169/54 116/171/54
f 1/56/53 115/111/53 57/54/53
f 2/172/54 116/171/54 60/173/54
f 118/174/57 119/175/57 117/176/57
f 128/177/58 123/178/58 125/179/58
f 123/178/59 135/180/59 136/181/59
f 122/182/60 126/183/60 121/184/60
f 134/185/53 121/184/53 126/186/53
f 135/180/54 127/187/54 133/188/54
f 130/189/57 125/179/57 126/190/57
f 130/191/57 127/192/57 131/193/57
f 132/194/57 127/195/57 128/177/57
f 132/196/57 125/197/57 129/198/57
f 117/176/59 129/199/59 130/189/59
f 118/174/59 130/189/59 131/200/59
f 120/201/59 131/200/59 132/194/59
f 119/175/59 132/194/59 129/199/59
f 133/188/59 121/184/59 134/185/59
f 140/202/58 149/203/58 137/204/58
f 144/205/53 148/206/53 143/207/53
f 143/207/60 146/208/60 142/209/60
f 142/209/54 146/208/54 141/210/54
f 145/211/59 147/212/59 148/206/59
f 2/1/1 4/4/1 3/2/1
f 4/4/2 6/6/2 5/5/2
f 6/6/3 8/8/3 7/7/3
f 8/8/4 10/10/4 9/9/4
f 10/10/5 12/12/5 11/11/5
f 12/12/6 14/14/6 13/13/6
f 14/14/7 16/16/7 15/15/7
f 16/16/8 18/18/8 17/17/8
f 18/18/9 20/20/9 19/19/9
f 20/20/10 22/22/10 21/21/10
f 22/22/11 24/24/11 23/23/11
f 24/24/12 26/26/12 25/25/12
f 26/26/13 28/28/13 27/27/13
f 28/28/14 30/30/14 29/29/14
f 30/30/15 32/146/15 31/31/15
f 34/32/16 36/35/16 35/33/16
f 36/35/17 38/37/17 37/36/17
f 38/37/18 40/39/18 39/38/18
f 40/39/19 42/213/19 41/40/19
f 41/40/20 42/213/20 44/41/20
f 44/41/21 46/44/21 45/43/21
f 46/44/22 48/46/22 47/45/22
f 48/46/23 50/214/23 49/47/23
f 49/47/24 50/214/24 52/48/24
f 51/49/25 52/48/25 54/50/25
f 54/50/26 56/53/26 55/52/26
f 56/53/27 58/55/27 57/54/27
f 58/55/28 2/215/28 1/56/28
f 61/57/61 62/61/61 60/58/61
f 61/57/30 63/63/30 64/60/30
f 65/62/31 66/65/31 64/60/31
f 67/64/32 68/67/32 66/65/32
f 69/66/33 70/69/33 68/67/33
f 71/68/34 72/71/34 70/69/34
f 73/70/35 74/73/35 72/71/35
f 75/72/20 76/75/20 74/73/20
f 77/74/21 78/77/21 76/75/21
f 77/74/36 79/79/36 80/76/36
f 81/78/37 82/81/37 80/76/37
f 83/80/38 84/83/38 82/81/38
f 83/80/39 85/85/39 86/82/39
f 87/84/40 88/87/40 86/82/40
f 89/86/41 90/216/41 88/87/41
f 93/88/42 94/92/42 92/89/42
f 95/91/43 96/94/43 94/92/43
f 97/93/44 98/96/44 96/94/44
f 99/95/45 100/98/45 98/96/45
f 99/95/8 101/100/8 102/97/8
f 103/99/9 104/102/9 102/97/9
f 105/101/46 106/104/46 104/102/46
f 105/101/47 107/106/47 108/103/47
f 109/105/48 110/108/48 108/103/48
f 111/107/49 112/110/49 110/108/49
f 111/107/50 113/112/50 114/109/50
f 115/111/51 116/114/51 114/109/51
f 59/113/62 60/217/62 116/114/62
f 1/3/53 3/2/53 61/57/53
f 2/115/54 60/218/54 62/116/54
f 3/2/53 5/5/53 63/63/53
f 4/117/54 62/116/54 64/118/54
f 5/5/53 7/7/53 65/62/53
f 6/119/54 64/118/54 66/120/54
f 7/7/53 9/9/53 67/64/53
f 8/121/54 66/120/54 68/122/54
f 9/9/53 11/11/53 69/66/53
f 10/123/54 68/122/54 70/124/54
f 11/11/53 13/13/53 71/68/53
f 12/125/54 70/124/54 72/126/54
f 13/13/53 15/15/53 73/70/53
f 14/127/54 72/126/54 74/128/54
f 15/15/53 17/17/53 75/72/53
f 16/129/54 74/128/54 76/130/54
f 19/19/53 77/74/53 75/72/53
f 20/132/54 18/131/54 76/130/54
f 21/21/53 79/79/53 77/74/53
f 22/134/54 20/132/54 78/133/54
f 23/23/53 81/78/53 79/79/53
f 24/136/54 22/134/54 80/135/54
f 25/25/53 83/80/53 81/78/53
f 26/138/54 24/136/54 82/137/54
f 27/27/53 85/85/53 83/80/53
f 28/140/54 26/138/54 84/139/54
f 29/29/53 87/84/53 85/85/53
f 30/142/54 28/140/54 86/141/54
f 29/29/53 31/31/53 89/86/53
f 30/142/54 88/143/54 90/144/54
f 32/146/55 90/216/55 89/86/55
f 33/34/56 91/90/56 92/89/56
f 35/33/53 93/88/53 91/90/53
f 36/147/54 34/219/54 92/148/54
f 35/33/53 37/36/53 95/91/53
f 36/147/54 94/149/54 96/150/54
f 37/36/53 39/38/53 97/93/53
f 38/151/54 96/150/54 98/152/54
f 39/38/53 41/40/53 99/95/53
f 40/153/54 98/152/54 100/154/54
f 41/40/53 43/42/53 101/100/53
f 42/155/54 100/154/54 102/156/54
f 45/43/53 103/99/53 101/100/53
f 46/158/54 44/157/54 102/156/54
f 47/45/53 105/101/53 103/99/53
f 48/160/54 46/158/54 104/159/54
f 49/47/53 107/106/53 105/101/53
f 50/162/54 48/160/54 106/161/54
f 51/49/53 109/105/53 107/106/53
f 52/164/54 50/162/54 108/163/54
f 53/51/53 111/107/53 109/105/53
f 54/166/54 52/164/54 110/165/54
f 55/52/53 113/112/53 111/107/53
f 56/168/54 54/166/54 112/167/54
f 57/54/53 115/111/53 113/112/53
f 58/170/54 56/168/54 114/169/54
f 1/56/53 59/113/53 115/111/53
f 2/172/54 58/170/54 116/171/54
f 118/174/57 120/201/57 119/175/57
f 128/177/58 124/220/58 123/178/58
f 123/178/59 124/220/59 135/180/59
f 122/182/60 127/221/60 126/183/60
f 126/186/53 125/222/53 134/185/53
f 125/222/53 123/178/53 136/181/53
f 134/185/53 125/222/53 136/181/53
f 135/180/54 124/220/54 128/223/54
f 128/223/54 127/187/54 135/180/54
f 127/187/54 122/182/54 133/188/54
f 130/189/59 129/199/59 125/179/59
f 130/191/57 126/224/57 127/192/57
f 132/194/59 131/200/59 127/195/59
f 132/196/57 128/225/57 125/197/57
f 117/176/59 119/175/59 129/199/59
f 118/174/59 117/176/59 130/189/59
f 120/201/59 118/174/59 131/200/59
f 119/175/59 120/201/59 132/194/59
f 133/188/59 122/182/59 121/184/59
f 149/203/58 136/181/58 135/180/58
f 137/204/58 141/210/58 144/205/58
f 141/210/58 145/211/58 148/206/58
f 149/203/58 135/180/58 137/204/58
f 148/206/58 144/205/58 141/210/58
f 144/205/58 140/202/58 137/204/58
f 139/226/53 134/185/53 149/203/53
f 134/185/53 136/181/53 149/203/53
f 149/203/53 140/202/53 139/226/53
f 140/202/53 144/205/53 143/207/53
f 148/206/53 147/212/53 143/207/53
f 143/207/53 139/226/53 140/202/53
f 151/227/60 133/188/60 134/185/60
f 139/226/60 143/207/60 142/209/60
f 143/207/60 147/212/60 146/208/60
f 151/227/60 134/185/60 150/228/60
f 134/185/60 139/226/60 150/228/60
f 142/209/60 138/229/60 139/226/60
f 138/229/60 150/228/60 139/226/60
f 137/204/54 135/180/54 150/228/54
f 135/180/54 133/188/54 151/227/54
f 151/227/54 150/228/54 135/180/54
f 150/228/54 138/229/54 137/204/54
f 137/204/54 138/229/54 141/210/54
f 146/208/54 145/211/54 141/210/54
f 138/229/54 142/209/54 141/210/54
f 145/211/59 146/208/59 147/212/59
l 153 152
